<?xml version="1.0" encoding="UTF-8" standalone="no"?><!DOCTYPE svg PUBLIC "-//W3C//DTD SVG 1.1//EN" "http://www.w3.org/Graphics/SVG/1.1/DTD/svg11.dtd"><svg width="100%" height="100%" viewBox="0 0 3750 1592" version="1.1" xmlns="http://www.w3.org/2000/svg" xmlns:xlink="http://www.w3.org/1999/xlink" xml:space="preserve" xmlns:serif="http://www.serif.com/" style="fill-rule:evenodd;clip-rule:evenodd;stroke-linejoin:round;stroke-miterlimit:2;"><g id="Style"><g id="Bit-Academy-Logo"><path id="Bit-Academy-Logo-Black---bit_academy_logo_black" serif:id="Bit-Academy-Logo-Black-/-bit_academy_logo_black" d="M255.072,182.582c44.749,0 83.382,9.995 115.901,29.983c32.518,19.989 57.13,47.436 73.836,82.341c16.707,34.906 25.06,75.032 25.06,120.379c0,44.751 -8.503,84.728 -25.507,119.932c-17.005,35.204 -41.617,62.651 -73.837,82.341c-32.22,19.691 -71.002,29.536 -116.348,29.536c-29.833,0 -57.578,-6.713 -83.234,-20.138c-25.657,-13.425 -45.346,-31.475 -59.069,-54.148l0,67.125l-86.814,0l0,-639.038l86.814,0l0,255.078c13.723,-22.077 33.412,-39.828 59.069,-53.253c25.656,-13.425 53.699,-20.138 84.129,-20.138Zm127.088,97.557l-270.286,0l0,271.188l270.286,0l0,-271.188Zm173.628,-280.139l86.813,0l0,86.816l-86.813,0l0,-86.816Zm0,639.933l0,-450.19l86.813,0l0,450.19l-86.813,0Zm468.078,-78.761l0,78.761l-70.704,0c-45.346,0 -81.443,-13.126 -108.293,-39.38c-26.85,-26.254 -40.275,-62.352 -40.275,-108.296l0,-227.333l-92.184,0l0,-75.181l92.184,0l0,-141.412l86.814,0l0,141.412l132.458,0l0,75.181l-132.458,0l0,296.248l132.458,0Zm-578.162,397.721l0,450.191l-86.814,0l0,-60.861c-10.74,19.691 -29.385,35.95 -55.937,48.779c-26.551,12.828 -55.339,19.242 -86.366,19.242c-45.346,0 -84.278,-9.994 -116.796,-29.983c-32.518,-19.988 -57.279,-47.435 -74.284,-82.341c-17.005,-34.905 -25.507,-74.733 -25.507,-119.484c0,-45.347 8.502,-85.473 25.507,-120.379c17.005,-34.905 41.766,-62.352 74.284,-82.341c32.518,-19.989 71.151,-29.983 115.901,-29.983c29.237,0 56.832,6.265 82.787,18.795c25.954,12.531 46.091,28.641 60.411,48.331l0,-59.966l86.814,0Zm-85.919,90.396l-272.076,0l0,271.189l272.076,0l0,-271.189Zm398.27,366.955c-45.943,0 -85.77,-10.591 -119.481,-31.773c-33.711,-21.182 -59.517,-49.374 -77.416,-84.578c-17.9,-35.204 -26.85,-73.988 -26.85,-116.352c0,-42.364 8.95,-81.147 26.85,-116.351c17.899,-35.204 43.705,-63.397 77.416,-84.579c33.711,-21.182 73.538,-31.773 119.481,-31.773c35.203,0 68.019,6.713 98.449,20.138c30.429,13.425 55.489,32.519 75.179,57.281c19.689,24.762 31.622,53.849 35.799,87.263l-86.814,0c-4.176,-25.657 -17.75,-46.838 -40.722,-63.545c-22.971,-16.707 -49.671,-25.061 -80.101,-25.061c-43.556,0 -76.969,14.619 -100.239,43.856c-23.27,29.237 -34.904,66.827 -34.904,112.771c0,45.348 11.784,82.789 35.352,112.324c23.568,29.536 56.831,44.303 99.791,44.303c30.43,0 56.533,-7.458 78.311,-22.375c21.778,-14.917 36.247,-35.204 43.407,-60.861l85.919,0c-7.16,47.734 -29.683,86.22 -67.571,115.457c-37.889,29.237 -85.173,43.855 -141.856,43.855Zm712.41,-457.351l0,450.191l-86.813,0l0,-60.861c-10.74,19.691 -29.386,35.95 -55.937,48.779c-26.552,12.828 -55.34,19.242 -86.367,19.242c-45.346,0 -84.277,-9.994 -116.795,-29.983c-32.519,-19.988 -57.28,-47.435 -74.285,-82.341c-17.004,-34.905 -25.507,-74.733 -25.507,-119.484c0,-45.347 8.503,-85.473 25.507,-120.379c17.005,-34.905 41.766,-62.352 74.285,-82.341c32.518,-19.989 71.151,-29.983 115.9,-29.983c29.237,0 56.832,6.265 82.787,18.795c25.955,12.531 46.092,28.641 60.412,48.331l0,-59.966l86.813,0Zm-85.918,90.396l-272.077,0l0,271.189l272.077,0l0,-271.189Zm620.226,-279.243l0,639.038l-86.814,0l0,-67.126c-13.723,22.674 -33.412,40.723 -59.069,54.149c-25.656,13.425 -53.401,20.137 -83.234,20.137c-44.749,0 -83.383,-9.994 -115.901,-29.983c-32.518,-19.988 -57.279,-47.435 -74.284,-82.341c-17.004,-34.905 -25.507,-74.733 -25.507,-119.484c0,-44.751 8.503,-84.727 25.507,-119.931c17.005,-35.204 41.617,-62.8 73.837,-82.789c32.22,-19.989 70.704,-29.983 115.453,-29.983c30.43,0 58.473,6.713 84.129,20.138c25.657,13.425 45.346,31.176 59.069,53.253l0,-255.078l86.814,0Zm-86.814,279.243l-270.286,0l0,271.189l270.286,0l0,-271.189Zm610.382,213.013c-8.353,46.541 -31.324,83.833 -68.914,111.877c-37.589,28.044 -84.128,42.065 -139.618,42.065c-45.346,0 -85.173,-10.74 -119.481,-32.22c-34.308,-21.48 -60.71,-50.121 -79.206,-85.921c-18.497,-35.801 -27.745,-74.883 -27.745,-117.247c0,-42.364 8.652,-80.998 25.955,-115.904c17.303,-34.905 42.362,-62.651 75.179,-83.236c32.816,-20.585 71.599,-30.878 116.348,-30.878c44.75,0 83.234,9.696 115.454,29.088c32.219,19.392 56.682,45.347 73.389,77.866c16.706,32.519 25.059,68.17 25.059,106.954c0,11.934 -0.596,23.27 -1.79,34.01l-344.57,0c3.58,42.961 18.198,77.568 43.854,103.822c25.657,26.254 58.174,39.38 97.554,39.38c32.816,0 59.666,-6.861 80.549,-20.585c20.883,-13.723 34.606,-33.414 41.169,-59.071l86.814,0Zm-217.482,-241.653c-35.203,0 -63.991,9.696 -86.366,29.088c-22.375,19.392 -36.844,47.883 -43.407,85.474l255.967,0c-2.984,-34.608 -15.514,-62.353 -37.59,-83.236c-22.076,-20.884 -51.611,-31.326 -88.604,-31.326Zm815.334,-68.916c48.33,0 86.814,15.514 115.454,46.541c28.64,31.027 42.959,72.496 42.959,124.406l0,286.404l-86.814,0l0,-360.69l-205.847,0l0,360.69l-85.919,0l0,-360.69l-204.952,0l0,360.69l-86.814,0l0,-450.191l86.814,0l0,59.071c13.723,-19.69 31.623,-35.502 53.699,-47.436c22.077,-11.933 46.241,-18.198 72.494,-18.795l11.635,0c29.237,0.597 56.086,6.862 80.549,18.795c24.463,11.934 44.451,27.746 59.964,47.436c15.513,-19.69 35.352,-35.502 59.517,-47.436c24.165,-11.933 50.865,-18.198 80.101,-18.795l7.16,0Zm397.375,639.934l-83.234,0l60.859,-178.108l-167.362,-455.561l89.498,0l118.139,338.315l119.033,-338.315l89.499,0l-158.413,434.976l-68.019,198.693Z" style="fill:#fff;fill-rule:nonzero;"/></g></g></svg>